<svg xmlns="http://www.w3.org/2000/svg" width="160" height="160" fill="none" viewBox="0 0 160 160"><rect width="160" height="160" fill="#36286D" rx="80"/><circle cx="80" cy="72" r="43" fill="#F0B58A"/><path fill="#1A171A" d="M42 74c2-30 18-50 40-50 25 0 38 20 40 50-11-8-24-12-40-12-17 0-30 4-40 12Z"/><path fill="#181B20" d="M48 145c4-30 17-48 32-48h1c15 0 28 18 32 48H48Z"/><path fill="#E9A77D" d="M58 72c10 8 36 9 48 0 0 0 2 38-24 39-26-1-24-39-24-39Z"/><path fill="#202329" d="M62 73c9 7 30 7 39 0-1 11-7 24-20 24S63 84 62 73Z"/><circle cx="65" cy="69" r="4" fill="#1A171A"/><circle cx="96" cy="69" r="4" fill="#1A171A"/><path stroke="#FFF0E4" stroke-linecap="round" stroke-width="4" d="M68 83c8 7 18 7 26 0"/><path fill="#151215" d="M51 62c5-27 18-41 39-41 25 3 37 21 39 51-15-15-26-24-53-22-11 1-19 5-25 12Z"/><circle cx="80" cy="80" r="74" stroke="#fff" stroke-opacity=".12" stroke-width="2"/></svg>