<svg xmlns="http://www.w3.org/2000/svg" width="64" height="64" fill="none" viewBox="0 0 64 64"><rect width="64" height="64" fill="url(#paint0_linear)" rx="14"/><path fill="#fff" fill-opacity=".9" d="M16 44V20c0-3.4 4.2-5 6.5-2.5L34 30.4V20c0-2.2 1.8-4 4-4s4 1.8 4 4v24c0 3.4-4.2 5-6.5 2.5L24 33.6V44c0 2.2-1.8 4-4 4s-4-1.8-4-4Z"/><path fill="#C9B8FF" fill-opacity=".82" d="M43.8 16.5c2.3 1.1 3.9 3.5 3.9 6.2 0 4.2-3.4 7.6-7.6 7.6-1.6 0-3.1-.5-4.3-1.3V20c0-2.2 1.8-4 4-4 1.5 0 2.9.2 4 .5Z"/><defs><linearGradient id="paint0_linear" x1="8" x2="58" y1="4" y2="58" gradientUnits="userSpaceOnUse"><stop stop-color="#6CA7FF"/><stop offset=".45" stop-color="#7E4DFF"/><stop offset="1" stop-color="#22106E"/></linearGradient></defs></svg>